<svg width="33" height="33" viewBox="0 0 33 33" fill="none" xmlns="http://www.w3.org/2000/svg">
<path d="M12.375 29.3906H20.625" stroke="#3A3A3A" stroke-width="2.5" stroke-linecap="round" stroke-linejoin="round"/>
<path d="M7.24524 13.4063C7.24353 12.1832 7.48391 10.9719 7.95252 9.84223C8.42114 8.71251 9.10871 7.68672 9.97562 6.82397C10.8425 5.96123 11.8716 5.27859 13.0036 4.81542C14.1355 4.35225 15.348 4.11771 16.571 4.1253C21.6744 4.16324 25.7564 8.40516 25.7564 13.5228V13.9219C25.7564 18.5388 26.7223 21.2179 27.5731 22.6821C27.6647 22.8386 27.7135 23.0165 27.7145 23.1978C27.7154 23.3791 27.6686 23.5575 27.5786 23.7149C27.4886 23.8723 27.3588 24.0033 27.202 24.0945C27.0453 24.1857 26.8673 24.234 26.686 24.2344H6.31461C6.13327 24.2339 5.95525 24.1857 5.79853 24.0944C5.6418 24.0032 5.51191 23.8723 5.42195 23.7148C5.33199 23.5573 5.28515 23.3789 5.28615 23.1976C5.28715 23.0162 5.33596 22.8384 5.42765 22.6819C6.27886 21.2176 7.24523 18.5385 7.24523 13.9219L7.24524 13.4063Z" stroke="#3A3A3A" stroke-width="2.5" stroke-linecap="round" stroke-linejoin="round"/>
</svg>
