<svg width="123" height="13" viewBox="0 0 123 13" fill="none" xmlns="http://www.w3.org/2000/svg">
<path d="M12.0787 1.80068C26.3076 1.45355 40.5424 1.20444 54.7771 1.04926C69.0119 0.894074 83.2525 0.840985 97.4872 0.877739C105.482 0.898158 113.477 0.951247 121.478 1.03701L122.059 0.17941C107.595 1.35963 93.1258 2.53576 78.6621 3.71598L35.2652 7.25255L10.7991 9.24544C10.4058 9.27811 9.73074 9.41696 9.57812 9.71099C9.4255 10.005 9.86575 10.1112 10.218 10.1071C23.4137 9.91518 36.6095 9.72733 49.8052 9.53539L89.099 8.96774C96.5304 8.86156 103.956 8.7513 111.387 8.64512C111.869 8.63695 112.591 8.54303 112.855 8.22041C113.119 7.89779 112.638 7.76302 112.25 7.76302C97.7514 7.87737 83.2583 8.16732 68.7771 8.64104C54.2958 9.11476 40.0258 9.75183 25.6795 10.5727C17.532 11.0382 9.39615 11.561 1.26621 12.1409C0.884656 12.1694 0.0628563 12.3369 0.00415634 12.6636C-0.0604136 13.0148 0.643986 13.0107 0.960966 12.9944C20.3965 12.0183 39.8791 11.5242 59.3616 11.5119C64.8148 11.5119 70.2739 11.5405 75.7271 11.614C76.1909 11.6222 76.9129 11.5038 77.1653 11.2016C77.4177 10.8994 76.9481 10.7605 76.5724 10.7564C66.7871 10.6258 57.0018 10.6094 47.2166 10.7197C37.4313 10.83 27.646 11.0668 17.8724 11.4221C12.3312 11.6222 6.79574 11.8632 1.26034 12.1409L0.955096 12.9944C15.2779 11.9734 29.63 11.1281 43.9998 10.4583C58.3695 9.78858 72.7628 9.30261 87.156 8.99224C95.2273 8.81664 103.304 8.70229 111.376 8.63695L112.244 7.75894C99.0486 7.95087 85.8529 8.13873 72.6513 8.33067L33.3516 8.9024C25.9202 9.00858 18.4946 9.11884 11.0632 9.22502L10.4821 10.0867L53.879 6.55013L97.2876 3.02173C105.441 2.35607 113.594 1.6945 121.754 1.02884C122.147 0.996169 122.816 0.85732 122.969 0.563287C123.121 0.269253 122.681 0.171242 122.335 0.167158C108.094 0.0201416 93.8596 -0.0288639 79.6189 0.0160578C65.3783 0.0609796 51.1436 0.203913 36.9088 0.444857C28.9139 0.579622 20.919 0.742974 12.9299 0.938996C12.4603 0.951247 11.75 1.03701 11.4859 1.35554C11.2393 1.64958 11.6972 1.81293 12.0787 1.80476V1.80068Z" fill="black"/>
</svg>
