<svg width="59" height="39" viewBox="0 0 59 39" fill="none" xmlns="http://www.w3.org/2000/svg">
<path d="M32.4933 0.110602C26.5672 -0.532697 20.7833 1.7356 15.9402 4.96885C11.1682 8.15854 7.02236 12.2763 3.81396 17.014C2.18607 19.4196 0.751094 22.0598 0.216361 24.9346C-0.281144 27.5949 0.0268355 30.4562 1.49566 32.7781C2.96448 35.1 5.27263 36.457 7.69924 37.3717C10.5557 38.4506 13.6219 38.9297 16.6712 38.9933C22.6921 39.1173 28.7704 37.7871 34.4257 35.817C40.081 33.8469 45.1712 31.1632 49.889 27.7423C54.2278 24.5995 58.5632 20.4114 58.9625 14.7859C59.1453 12.2093 58.4481 9.61266 56.6612 7.67942C54.8742 5.74617 52.451 4.72426 50.0074 4.0307C43.9697 2.31859 37.4581 2.40235 31.3019 3.35725C25.1457 4.31215 18.6613 6.35261 12.5558 8.53045C11.0769 9.05648 9.60465 9.59926 8.13244 10.1387C7.9463 10.2057 7.61124 10.4335 7.78385 10.658C7.95645 10.8825 8.4438 10.7451 8.64687 10.6714C14.4308 8.5606 20.2384 6.45313 26.2457 5.04926C32.253 3.6454 38.3076 2.99205 44.3488 3.78612C49.2223 4.42607 55.4157 5.9405 57.1688 11.1472C57.9709 13.5294 57.7374 16.1596 56.8405 18.4815C55.8929 20.9374 54.1567 23.0348 52.2242 24.8039C50.2917 26.573 47.9768 28.2114 45.6754 29.6487C43.3741 31.0861 40.8696 32.4196 38.3279 33.5387C33.2107 35.7936 27.7314 37.365 22.1607 38.0016C19.2028 38.34 16.1907 38.3802 13.2462 37.9078C10.5726 37.4789 7.86169 36.6681 5.59415 35.157C3.39092 33.6928 1.90517 31.5284 1.44828 28.9317C0.991386 26.3351 1.57688 23.5072 2.69035 21.0413C3.8275 18.5183 5.46216 16.1897 7.20173 14.0387C8.94131 11.8877 10.8603 9.94101 12.962 8.16859C17.1315 4.6472 22.1506 1.57143 27.6705 0.837664C29.0175 0.656736 30.3882 0.626581 31.7385 0.774004C32.033 0.804159 32.3883 0.757251 32.6117 0.542818C32.7775 0.381994 32.7742 0.140757 32.4933 0.110602Z" fill="black"/>
</svg>
