<svg width="176" height="106" viewBox="0 0 176 106" fill="none" xmlns="http://www.w3.org/2000/svg">
<path d="M113.479 5.51561C97.8392 -1.21299 80.1367 0.169593 64.1908 4.98883C48.4756 9.74802 33.6887 17.5791 20.9396 27.8967C14.4694 33.1369 8.32848 39.1823 4.44819 46.6255C0.850091 53.5112 -0.717897 61.6234 1.33792 69.2269C3.39374 76.8305 8.5537 82.4882 14.4094 87.0311C21.3006 92.3847 29.2696 96.2677 37.5421 98.9961C53.8775 104.379 71.5942 105.818 88.6945 105.146C105.795 104.474 121.953 101.37 137.715 95.931C152.208 90.9378 167.571 83.0723 173.398 67.965C176.066 61.0456 176.348 53.3341 173.097 46.531C169.845 39.7278 164.089 34.8934 158.001 30.9433C142.956 21.1874 125.106 15.9642 107.492 13.4298C89.8792 10.8954 70.4556 11.0659 51.9513 11.9309C47.4701 12.1363 42.9933 12.3933 38.5193 12.6411C37.9547 12.6691 36.848 13.0139 37.1303 13.7747C37.4126 14.5354 38.859 14.5665 39.4755 14.5342C57.0454 13.5839 74.6772 12.6626 92.2619 13.8399C109.847 15.0172 126.929 18.2942 142.756 25.5331C155.524 31.371 171.16 40.7148 171.563 56.475C171.748 63.6857 168.896 70.7098 164.492 76.3322C159.837 82.28 153.331 86.5833 146.565 89.8209C139.799 93.0585 132.099 95.6172 124.605 97.6354C117.111 99.6536 109.15 101.217 101.267 102.16C85.3967 104.064 69.1126 103.789 53.366 100.871C45.0044 99.3227 36.7461 96.9106 29.1041 93.148C22.1648 89.7317 15.4454 85.2358 10.5261 79.189C5.74282 73.3249 3.50822 66.1394 4.44677 58.6291C5.38531 51.1189 9.36472 43.847 14.4811 38.0105C19.7101 32.0375 26.1339 27.0146 32.6947 22.5669C39.2555 18.1193 46.134 14.3829 53.3649 11.2778C67.7144 5.10358 84.0082 0.863984 99.6981 3.47253C103.528 4.10393 107.296 5.16903 110.859 6.70457C111.638 7.03392 112.648 7.20276 113.438 6.80122C114.026 6.49864 114.22 5.83363 113.479 5.51561Z" fill="#313131"/>
</svg>
