<svg width="31" height="31" viewBox="0 0 31 31" fill="none" xmlns="http://www.w3.org/2000/svg">
<path d="M21.2791 6.98534L24.0148 9.71979L21.2791 6.98534ZM23.0383 4.57638L15.641 11.9738C15.2587 12.3554 14.9981 12.8417 14.8918 13.3713L14.2085 16.7917L17.6288 16.1071C18.1584 16.0012 18.6441 15.7415 19.0264 15.3592L26.4238 7.96184C26.6461 7.73954 26.8224 7.47564 26.9427 7.1852C27.063 6.89477 27.1249 6.58347 27.1249 6.26911C27.1249 5.95474 27.063 5.64345 26.9427 5.35301C26.8224 5.06257 26.6461 4.79867 26.4238 4.57638C26.2015 4.35408 25.9376 4.17775 25.6472 4.05745C25.3567 3.93714 25.0454 3.87523 24.7311 3.87523C24.4167 3.87523 24.1054 3.93714 23.815 4.05745C23.5245 4.17775 23.2606 4.35408 23.0383 4.57638V4.57638Z" stroke="#313131" stroke-width="2" stroke-linecap="round" stroke-linejoin="round"/>
<path d="M24.5417 19.375V23.25C24.5417 23.9351 24.2696 24.5922 23.7851 25.0767C23.3006 25.5612 22.6436 25.8333 21.9584 25.8333H7.75008C7.06494 25.8333 6.40786 25.5612 5.92339 25.0767C5.43892 24.5922 5.16675 23.9351 5.16675 23.25V9.04167C5.16675 8.35653 5.43892 7.69945 5.92339 7.21498C6.40786 6.73051 7.06494 6.45834 7.75008 6.45834H11.6251" stroke="#313131" stroke-width="2" stroke-linecap="round" stroke-linejoin="round"/>
</svg>
