<svg width="27" height="25" viewBox="0 0 27 25" fill="none" xmlns="http://www.w3.org/2000/svg">
<path d="M26.3468 5.34874C25.9278 4.38628 25.3238 3.51411 24.5684 2.78105C23.8125 2.04581 22.9213 1.46152 21.9431 1.05996C20.9289 0.641913 19.841 0.427934 18.7428 0.430442C17.202 0.430442 15.6987 0.849087 14.3923 1.63986C14.0797 1.82903 13.7828 2.0368 13.5015 2.26318C13.2203 2.0368 12.9234 1.82903 12.6108 1.63986C11.3044 0.849087 9.80112 0.430442 8.26032 0.430442C7.15082 0.430442 6.0757 0.641315 5.05995 1.05996C4.07859 1.4631 3.19412 2.043 2.43465 2.78105C1.67831 3.51329 1.07412 4.38566 0.656325 5.34874C0.2219 6.35039 0 7.41406 0 8.50874C0 9.54139 0.212524 10.6175 0.634448 11.7121C0.987613 12.627 1.49392 13.5759 2.14087 14.5341C3.16599 16.0505 4.57552 17.6321 6.32572 19.2353C9.22606 21.893 12.0983 23.7288 12.2201 23.8032L12.9609 24.2746C13.289 24.4824 13.7109 24.4824 14.0391 24.2746L14.7798 23.8032C14.9017 23.7257 17.7708 21.893 20.6742 19.2353C22.4244 17.6321 23.834 16.0505 24.8591 14.5341C25.506 13.5759 26.0155 12.627 26.3655 11.7121C26.7874 10.6175 27 9.54139 27 8.50874C27.0031 7.41406 26.7812 6.35039 26.3468 5.34874Z" fill="#FF6B6B"/>
</svg>
