<svg width="31" height="29" viewBox="0 0 31 29" fill="none" xmlns="http://www.w3.org/2000/svg">
<path d="M30.643 26.2337L20.7521 17.2999C22.2869 15.5077 23.1172 13.3164 23.1172 11.0116C23.1172 8.25269 21.9251 5.6658 19.7694 3.71531C17.6138 1.76481 14.7421 0.691528 11.6914 0.691528C8.64072 0.691528 5.76904 1.76825 3.61338 3.71531C1.45391 5.66236 0.265625 8.25269 0.265625 11.0116C0.265625 13.767 1.45771 16.3608 3.61338 18.3079C5.76904 20.2584 8.63691 21.3316 11.6914 21.3316C14.2432 21.3316 16.6654 20.5817 18.6497 19.1988L28.5406 28.1291C28.5696 28.1553 28.6041 28.1761 28.642 28.1903C28.6799 28.2045 28.7205 28.2118 28.7615 28.2118C28.8026 28.2118 28.8432 28.2045 28.8811 28.1903C28.919 28.1761 28.9534 28.1553 28.9824 28.1291L30.643 26.6327C30.672 26.6065 30.695 26.5754 30.7107 26.5412C30.7264 26.507 30.7345 26.4703 30.7345 26.4332C30.7345 26.3961 30.7264 26.3594 30.7107 26.3252C30.695 26.291 30.672 26.2599 30.643 26.2337ZM17.7242 16.4606C16.1094 17.9157 13.9689 18.7172 11.6914 18.7172C9.41387 18.7172 7.27344 17.9157 5.65859 16.4606C4.04756 15.002 3.16016 13.0687 3.16016 11.0116C3.16016 8.95446 4.04756 7.01773 5.65859 5.5626C7.27344 4.10747 9.41387 3.30594 11.6914 3.30594C13.9689 3.30594 16.1132 4.10403 17.7242 5.5626C19.3353 7.02117 20.2227 8.95446 20.2227 11.0116C20.2227 13.0687 19.3353 15.0055 17.7242 16.4606Z" fill="#BABABA"/>
</svg>
