<svg width="15" height="15" viewBox="0 0 15 15" fill="none" xmlns="http://www.w3.org/2000/svg">
<path d="M13.9292 12.1684C13.5792 11.3393 13.0712 10.5862 12.4337 9.95107C11.7981 9.31411 11.0451 8.80626 10.2164 8.45557C10.209 8.45186 10.2015 8.45 10.1941 8.44629C11.3501 7.61133 12.1015 6.25127 12.1015 4.7168C12.1015 2.1748 10.042 0.115234 7.49999 0.115234C4.95799 0.115234 2.89842 2.1748 2.89842 4.7168C2.89842 6.25127 3.64989 7.61133 4.80584 8.44814C4.79842 8.45185 4.791 8.45371 4.78358 8.45742C3.95233 8.80811 3.20643 9.31094 2.56629 9.95293C1.92933 10.5886 1.42148 11.3415 1.07079 12.1702C0.726267 12.9815 0.54046 13.8514 0.523423 14.7326C0.522928 14.7524 0.526401 14.7721 0.533639 14.7906C0.540876 14.809 0.551732 14.8258 0.565565 14.84C0.579398 14.8542 0.59593 14.8654 0.614185 14.8731C0.632441 14.8808 0.652051 14.8848 0.67186 14.8848H1.78514C1.86678 14.8848 1.93172 14.8198 1.93358 14.74C1.97069 13.3076 2.54588 11.9661 3.56268 10.9493C4.61473 9.89727 6.0119 9.31836 7.49999 9.31836C8.98807 9.31836 10.3852 9.89727 11.4373 10.9493C12.4541 11.9661 13.0293 13.3076 13.0664 14.74C13.0682 14.8217 13.1332 14.8848 13.2148 14.8848H14.3281C14.3479 14.8848 14.3675 14.8808 14.3858 14.8731C14.404 14.8654 14.4206 14.8542 14.4344 14.84C14.4482 14.8258 14.4591 14.809 14.4663 14.7906C14.4736 14.7721 14.477 14.7524 14.4765 14.7326C14.458 13.8457 14.2743 12.9829 13.9292 12.1684ZM7.49999 7.9082C6.64833 7.9082 5.84676 7.57607 5.24374 6.97305C4.64071 6.37002 4.30858 5.56846 4.30858 4.7168C4.30858 3.86514 4.64071 3.06357 5.24374 2.46055C5.84676 1.85752 6.64833 1.52539 7.49999 1.52539C8.35165 1.52539 9.15321 1.85752 9.75624 2.46055C10.3593 3.06357 10.6914 3.86514 10.6914 4.7168C10.6914 5.56846 10.3593 6.37002 9.75624 6.97305C9.15321 7.57607 8.35165 7.9082 7.49999 7.9082Z" fill="#575757"/>
</svg>
